<?xml version="1.0" encoding="iso-8859-1"?>
<!-- Generator: Adobe Illustrator 16.0.0, SVG Export Plug-In . SVG Version: 6.00 Build 0)  -->
<!DOCTYPE svg PUBLIC "-//W3C//DTD SVG 1.1//EN" "http://www.w3.org/Graphics/SVG/1.1/DTD/svg11.dtd">
<svg version="1.1" id="Capa_1" xmlns="http://www.w3.org/2000/svg" xmlns:xlink="http://www.w3.org/1999/xlink" x="0px" y="0px"
	 width="201.594px" height="201.594px" viewBox="0 0 201.594 201.594" style="enable-background:new 0 0 201.594 201.594;"
	 xml:space="preserve">
<g>
	<g>
		<path d="M165.309,0H36.289C25.167,0,16.125,9.036,16.125,20.152v161.292c0,11.113,9.042,20.149,20.164,20.149h129.02
			c11.119,0,20.161-9.036,20.161-20.149V20.152C185.476,9.036,176.434,0,165.309,0z M177.408,181.444
			c0,6.668-5.426,12.094-12.1,12.094H36.289c-6.67,0-12.096-5.426-12.096-12.094V20.152c0-6.665,5.426-12.09,12.096-12.09h129.02
			c6.668,0,12.093,5.426,12.093,12.09v161.292H177.408z"/>
		<path d="M52.053,45.668h85.026c2.046,0,3.702-1.659,3.702-3.706c0-2.052-1.656-3.711-3.702-3.711H52.053
			c-2.046,0-3.699,1.659-3.699,3.711C48.354,44.016,50.007,45.668,52.053,45.668z"/>
		<path d="M52.053,62.548h85.026c2.046,0,3.702-1.659,3.702-3.706c0-2.046-1.656-3.705-3.702-3.705H52.053
			c-2.046,0-3.699,1.659-3.699,3.705C48.354,60.889,50.007,62.548,52.053,62.548z"/>
		<path d="M52.053,79.433h85.026c2.046,0,3.702-1.659,3.702-3.711c0-2.046-1.656-3.705-3.702-3.705H52.053
			c-2.046,0-3.699,1.659-3.699,3.705C48.354,77.779,50.007,79.433,52.053,79.433z"/>
		<path d="M94.571,88.907H52.06c-2.046,0-3.705,1.66-3.705,3.712c0,2.046,1.659,3.705,3.705,3.705h42.511
			c2.046,0,3.7-1.659,3.7-3.705C98.271,90.561,96.617,88.907,94.571,88.907z"/>
		<path d="M81.82,122.245H52.06c-2.052,0-3.705,1.656-3.705,3.709c0,2.04,1.653,3.702,3.705,3.702H81.82
			c2.046,0,3.696-1.662,3.696-3.702C85.517,123.901,83.866,122.245,81.82,122.245z"/>
		<path d="M150.585,98.111l-4.92,5.331l-2.99,3.239l-32.948,35.713l-4.572,15.851l-3.026,10.473l10.193-3.86l15.43-5.846
			l32.942-35.706l2.995-3.246l4.908-5.328c4.592-4.969,4.287-12.727-0.694-17.317C162.928,92.832,155.177,93.143,150.585,98.111z
			 M110.671,163.341l-3.879-3.586l4.372-15.125l1.169,0.17l12.623,11.643l0.371,1.34L110.671,163.341z M162.203,118.702
			l-15.064-13.896l3.562-3.86l15.064,13.901L162.203,118.702z"/>
	</g>
</g>
<g>
</g>
<g>
</g>
<g>
</g>
<g>
</g>
<g>
</g>
<g>
</g>
<g>
</g>
<g>
</g>
<g>
</g>
<g>
</g>
<g>
</g>
<g>
</g>
<g>
</g>
<g>
</g>
<g>
</g>
</svg>
